<?xml version="1.0" standalone="no"?>
<!DOCTYPE svg PUBLIC "-//W3C//DTD SVG 20010904//EN"
 "http://www.w3.org/TR/2001/REC-SVG-20010904/DTD/svg10.dtd">
<svg version="1.0" xmlns="http://www.w3.org/2000/svg"
 width="1152.000000pt" height="1152.000000pt" viewBox="0 0 1152.000000 1152.000000"
 preserveAspectRatio="xMidYMid meet">
<metadata>
Created by potrace 1.14, written by Peter Selinger 2001-2017
</metadata>
<g transform="translate(0.000000,1152.000000) scale(0.100000,-0.100000)"
fill="#000000" stroke="none">
<path d="M2945 10708 c1 -763 -1 -815 -17 -840 -10 -14 -18 -28 -18 -31 0 -4
-52 -96 -142 -252 -16 -27 -34 -62 -41 -77 -6 -16 -15 -28 -19 -28 -4 0 -8 -4
-8 -9 0 -9 -173 -320 -200 -361 -6 -8 -13 -22 -17 -30 -4 -8 -19 -35 -33 -61
-33 -56 -72 -124 -118 -209 -20 -36 -38 -67 -41 -70 -3 -3 -17 -27 -31 -55
-13 -27 -27 -52 -30 -55 -3 -3 -10 -14 -16 -25 -39 -72 -89 -161 -174 -310
-53 -93 -117 -205 -141 -248 -24 -43 -56 -100 -71 -125 -15 -26 -30 -53 -34
-61 -4 -7 -29 -52 -57 -100 -27 -47 -62 -108 -77 -136 -15 -27 -43 -79 -64
-113 l-36 -64 0 -2194 0 -2194 43 -1 c23 0 1010 -1 2194 -1 l2152 0 48 28 c26
16 53 31 58 34 6 3 24 14 40 24 73 47 110 69 275 167 96 57 177 106 180 109 3
3 25 16 50 29 25 13 50 28 55 32 26 20 329 199 337 199 4 0 8 5 8 10 0 6 4 10
9 10 4 0 48 25 97 55 49 30 96 59 104 63 13 6 71 41 148 87 9 6 55 33 100 60
46 28 96 58 110 67 15 10 33 21 41 24 12 6 302 179 341 204 8 5 47 28 85 51
39 23 93 57 122 75 28 19 54 34 56 34 3 0 41 22 84 49 l78 48 760 1 c418 1
771 1 785 1 l25 1 0 3500 0 3500 -3501 0 -3500 0 1 -812z m6760 -2688 l0
-3265 -463 -1 c-387 -1 -460 1 -451 12 6 8 16 14 21 14 5 0 29 14 53 30 24 17
48 30 54 30 6 0 11 5 11 10 0 6 4 10 9 10 5 0 101 55 213 123 l203 123 1 2908
c0 1662 -4 2910 -9 2913 -6 4 -5471 7 -5769 4 l-47 -1 -39 -67 c-22 -38 -55
-95 -73 -129 -113 -203 -235 -414 -239 -414 -7 0 -5 944 3 956 3 6 1214 9
3264 9 l3258 0 0 -3265z m-583 2661 c5 -24 2 -5440 -3 -5444 -2 -2 -86 -53
-186 -113 -101 -60 -195 -117 -210 -126 -16 -10 -39 -23 -53 -30 -14 -7 -39
-23 -56 -35 -17 -13 -34 -23 -37 -23 -4 0 -38 -20 -77 -45 -39 -25 -72 -45
-75 -45 -2 0 -28 -15 -57 -34 l-53 -33 -2567 0 c-2344 0 -2568 1 -2569 16 0 9
-1 1150 -1 2536 l-1 2521 38 69 c22 39 47 85 56 103 10 18 22 38 27 45 6 7 25
41 43 75 47 88 55 102 68 115 6 6 11 19 11 29 0 10 5 18 10 18 6 0 10 5 10 11
0 6 8 23 18 37 11 15 32 52 48 82 16 30 43 78 61 107 18 29 33 54 33 57 0 3
16 31 35 64 l34 59 2725 0 c2488 0 2725 -1 2728 -16z m-6178 -3722 c0 -1426 4
-2432 9 -2436 5 -3 1122 -5 2483 -5 1361 0 2474 -2 2474 -3 0 -2 -15 -12 -32
-23 -18 -10 -104 -63 -191 -116 -87 -53 -162 -96 -167 -96 -6 0 -10 -4 -10
-10 0 -5 -4 -10 -9 -10 -5 0 -46 -22 -91 -50 -45 -27 -86 -50 -91 -50 -5 0 -9
-4 -9 -8 0 -4 -19 -18 -42 -30 -72 -38 -103 -57 -106 -64 -2 -5 -7 -8 -11 -8
-4 0 -153 -88 -331 -195 -178 -107 -327 -195 -332 -195 -4 0 -8 -4 -8 -10 0
-5 -4 -10 -9 -10 -9 0 -230 -129 -254 -148 -7 -5 -32 -21 -57 -35 -25 -13 -98
-56 -162 -95 l-117 -71 -2043 2 -2043 2 -1 2045 0 2045 43 73 c24 41 43 75 43
77 0 2 15 30 34 62 73 125 97 169 103 186 3 9 9 17 14 17 5 0 9 5 9 10 0 6 36
74 80 151 44 77 80 145 80 150 0 5 5 9 10 9 6 0 10 4 10 9 0 5 22 47 48 93 26
46 51 90 55 98 4 8 11 22 17 30 9 13 127 222 198 350 14 25 60 107 103 182 44
75 79 142 79 148 0 5 5 10 10 10 6 0 10 4 10 9 0 8 82 158 120 221 35 57 60
104 60 111 0 5 6 9 13 9 9 0 12 -492 11 -2431z"/>
<path d="M4850 7448 l0 -118 490 0 490 0 1 -77 c0 -43 0 -264 0 -490 l0 -413
117 0 117 0 -1 603 c-1 331 -2 604 -3 607 0 3 -273 5 -606 5 l-605 0 0 -117z"/>
<path d="M3045 2469 c-45 -8 -80 -17 -80 -19 0 -1 -11 -4 -25 -6 -14 -3 -26
-9 -28 -14 -2 -6 -10 -10 -17 -10 -14 0 -110 -72 -133 -99 -84 -101 -124 -208
-127 -346 -4 -168 42 -292 146 -395 90 -89 204 -137 344 -142 30 -1 121 15
157 28 147 51 253 167 303 327 30 97 28 252 -4 346 -23 66 -71 148 -112 191
-33 34 -95 80 -108 80 -6 0 -11 4 -11 9 0 15 -132 51 -200 55 -36 1 -83 -1
-105 -5z m181 -218 c113 -51 182 -178 171 -320 -14 -173 -123 -285 -277 -284
-118 0 -218 73 -257 186 -27 80 -23 199 10 270 25 55 75 117 95 117 6 0 12 4
14 8 15 40 172 55 244 23z"/>
<path d="M4120 2466 c-186 -39 -332 -184 -376 -378 -3 -13 -7 -66 -8 -118 -3
-107 16 -196 61 -282 39 -74 132 -162 209 -199 64 -29 159 -53 174 -44 5 3 11
1 15 -5 4 -6 11 -8 16 -4 6 3 36 8 68 10 68 5 131 25 183 59 21 14 41 25 44
25 7 0 75 69 108 110 21 27 65 118 72 152 40 186 21 333 -61 463 -106 167
-307 251 -505 211z m224 -225 c54 -28 103 -84 132 -151 29 -67 27 -197 -5
-273 -76 -186 -314 -231 -447 -85 -58 64 -78 126 -77 233 1 106 24 166 86 230
78 78 211 98 311 46z"/>
<path d="M7688 2474 c-2 -1 -19 -4 -38 -6 -42 -6 -56 -11 -137 -50 -123 -60
-215 -181 -249 -329 -3 -13 -7 -66 -9 -118 -6 -206 83 -376 246 -468 68 -39
113 -53 181 -58 29 -2 55 -5 58 -6 3 -1 10 0 15 1 6 1 30 4 55 6 41 3 138 32
150 44 3 3 18 12 34 20 93 48 194 196 220 323 15 70 11 272 -4 272 -1 0 -4 11
-5 25 -6 42 -77 160 -128 209 -89 86 -188 128 -316 135 -39 2 -72 2 -73 0z
m157 -222 c171 -83 226 -324 114 -495 -67 -102 -223 -141 -336 -85 -37 19
-135 108 -118 108 3 0 -2 11 -11 25 -34 52 -39 203 -9 282 31 83 98 150 171
173 43 13 155 8 189 -8z"/>
<path d="M9490 2463 c-30 -7 -62 -15 -71 -17 -27 -7 -103 -64 -129 -97 -43
-55 -59 -110 -56 -191 2 -82 24 -135 77 -188 48 -47 115 -76 292 -125 66 -18
125 -66 131 -105 10 -69 -64 -120 -167 -114 -82 5 -154 41 -212 108 l-48 54
-26 -31 c-34 -41 -73 -87 -87 -101 -16 -16 -6 -36 40 -82 108 -108 239 -149
416 -129 269 31 388 328 205 511 -40 41 -164 90 -296 119 -35 7 -97 45 -110
67 -15 25 -16 39 -5 80 12 43 82 72 154 65 68 -7 102 -16 102 -28 0 -5 6 -9
14 -9 7 0 30 -18 50 -40 l36 -40 65 66 65 66 -19 27 c-43 59 -121 114 -178
126 -16 3 -39 8 -53 11 -53 11 -137 10 -190 -3z"/>
<path d="M1942 2455 c-180 -50 -312 -183 -360 -365 -18 -70 -15 -230 5 -280 3
-8 7 -19 7 -25 2 -20 41 -105 49 -105 4 0 7 -7 7 -15 0 -24 120 -137 172 -163
26 -13 49 -22 50 -21 2 1 12 -3 24 -9 24 -13 61 -21 124 -28 100 -11 174 3
274 53 87 44 184 166 201 253 2 12 7 31 11 42 10 31 7 189 -4 200 -7 7 -300
13 -424 9 -14 -1 -16 -13 -15 -88 l2 -88 100 -2 c55 -1 110 -2 122 -2 18 -1
21 -6 17 -28 -15 -84 -102 -151 -204 -157 -84 -5 -165 27 -227 90 -55 56 -79
109 -97 213 -5 27 15 126 33 167 25 55 91 121 150 147 69 32 179 29 247 -6 28
-14 66 -38 84 -53 l32 -28 63 70 64 69 -32 33 c-39 41 -135 95 -202 115 -66
19 -207 20 -273 2z"/>
<path d="M4899 2451 c-1 -3 -2 -228 -3 -498 -1 -327 2 -494 9 -496 5 -2 114
-3 240 -2 219 2 300 11 329 37 6 4 16 8 23 8 18 0 111 69 142 105 28 34 85
140 94 176 22 88 27 190 14 269 -5 30 -9 61 -10 68 0 6 -4 12 -9 12 -5 0 -7 4
-3 10 9 15 -49 121 -91 166 -58 62 -120 102 -193 125 -58 19 -93 21 -303 23
-131 1 -239 0 -239 -3z m446 -196 c36 -7 104 -46 126 -71 93 -104 102 -318 19
-433 -64 -88 -135 -108 -361 -102 l-27 1 0 293 c0 160 1 299 4 307 3 12 23 15
106 13 57 -1 117 -5 133 -8z"/>
<path d="M6366 2451 c-2 -4 -3 -229 -2 -501 l1 -495 235 -1 c129 0 253 4 275
8 22 5 50 11 63 13 57 13 163 107 168 150 1 6 3 12 4 15 9 24 12 56 13 121 0
66 -4 83 -26 122 -28 47 -92 107 -114 107 -20 0 -15 18 7 30 27 14 69 71 74
101 2 13 5 24 6 24 9 0 4 110 -6 146 -19 63 -82 126 -139 139 -5 1 -19 7 -30
13 -20 11 -524 18 -529 8z m435 -191 c20 -6 43 -18 52 -28 21 -24 27 -83 11
-120 -21 -51 -58 -63 -187 -60 l-112 3 0 38 c0 20 -3 37 -7 37 -4 0 -4 8 -1
17 9 22 8 66 0 80 -4 7 -3 14 3 18 6 4 8 11 5 16 -8 12 190 12 236 -1z m60
-399 c44 -21 68 -71 59 -122 -15 -83 -54 -99 -229 -98 l-130 1 2 44 c1 24 -1
44 -4 44 -4 0 -4 13 1 30 5 18 5 32 -1 35 -5 4 -5 13 1 24 5 10 7 21 3 24 -3
3 -3 13 0 22 9 22 249 19 298 -4z"/>
<path d="M8247 2445 c21 -34 311 -463 325 -479 10 -11 20 -28 24 -38 3 -10 9
-18 13 -18 4 0 7 -102 7 -227 l0 -228 98 0 c57 -1 100 3 104 10 4 5 7 105 7
222 l0 212 95 151 c52 82 102 161 110 174 8 13 29 47 45 75 17 28 33 51 38 51
4 0 7 5 7 11 0 5 11 27 25 47 14 20 25 39 25 42 0 3 -51 6 -112 5 l-113 0 -64
-105 c-35 -58 -69 -114 -75 -125 -6 -11 -18 -31 -27 -45 -9 -14 -25 -40 -36
-59 l-21 -34 -28 44 c-16 24 -33 49 -37 54 -4 6 -47 69 -95 140 l-87 130 -117
0 c-78 1 -115 -3 -111 -10z"/>
<path d="M4030 1102 c-229 -17 -417 -197 -446 -427 -6 -45 -5 -146 2 -180 3
-16 7 -39 9 -50 5 -37 35 -108 65 -156 131 -213 428 -286 648 -158 74 42 151
125 188 201 33 67 58 153 49 168 -3 5 -2 11 3 14 4 2 7 35 6 73 -5 189 -66
317 -204 427 -69 55 -218 96 -320 88z m156 -230 c101 -52 157 -154 157 -292 1
-182 -134 -322 -295 -306 -77 8 -78 9 -78 18 0 5 -4 7 -8 4 -14 -8 -86 50
-114 91 -47 69 -61 123 -56 216 3 68 10 95 33 142 32 62 87 113 150 138 55 21
158 16 211 -11z"/>
<path d="M1960 1086 c-55 -12 -159 -58 -194 -86 -103 -83 -168 -190 -191 -315
-9 -54 -7 -162 5 -222 36 -177 172 -326 340 -374 67 -19 70 -19 140 -19 140
-1 236 36 325 125 88 87 126 185 126 328 0 48 -3 92 -6 97 -3 5 -100 9 -225 8
l-219 -1 2 -86 2 -86 123 -3 c73 -1 122 -7 122 -13 0 -20 -32 -85 -53 -107
-42 -45 -96 -66 -172 -66 -108 -1 -177 39 -266 151 -5 7 -9 19 -9 27 0 8 -4
17 -9 20 -13 8 -23 72 -22 136 1 56 33 162 51 168 6 2 10 9 10 14 0 17 60 67
113 94 101 52 239 31 331 -50 16 -14 33 -26 37 -26 4 0 35 30 68 67 l61 68
-38 36 c-36 35 -152 107 -152 95 0 -4 -9 -2 -21 4 -11 6 -30 14 -42 17 -47 11
-185 10 -237 -1z"/>
<path d="M2701 1080 c-4 -3 -7 -228 -6 -500 l0 -495 100 -2 100 -2 0 176 c0
188 -1 186 53 185 102 -2 98 -1 127 -56 16 -28 42 -76 58 -106 17 -30 45 -84
64 -119 19 -36 39 -68 45 -72 6 -4 62 -7 124 -8 l113 0 -26 47 c-14 26 -56
102 -94 168 -38 67 -69 125 -69 129 0 5 -7 16 -16 26 -14 16 -14 19 13 36 128
83 181 239 132 392 -29 89 -135 179 -234 197 -45 8 -473 12 -484 4z m459 -200
c49 -26 71 -64 71 -118 0 -51 -4 -65 -23 -95 -29 -44 -62 -53 -193 -52 l-120
1 0 134 c0 74 4 138 9 141 17 12 230 3 256 -11z"/>
<path d="M4736 1080 c-2 -3 -3 -160 -2 -350 2 -326 3 -348 24 -404 58 -157
204 -255 377 -251 79 2 129 12 190 41 98 45 179 150 203 259 9 41 15 668 7
695 -4 13 -23 15 -100 15 -52 0 -95 -2 -96 -5 0 -3 -1 -149 -3 -325 -2 -176
-6 -331 -9 -344 -37 -143 -240 -191 -332 -79 -51 62 -50 53 -55 413 l-5 339
-98 1 c-54 0 -100 -2 -101 -5z"/>
<path d="M5779 1045 c-3 -232 0 -945 5 -953 9 -14 194 -12 199 2 2 6 3 84 2
174 l0 162 25 0 c208 2 256 7 306 33 53 27 94 67 133 130 29 48 36 83 36 182
-1 62 -6 91 -24 128 -39 84 -128 157 -209 174 -15 3 -127 6 -249 7 l-223 1 -1
-40z m433 -167 c55 -26 82 -121 52 -184 -26 -56 -55 -67 -174 -69 l-107 -2 -1
111 c-2 168 -9 156 106 156 57 0 109 -5 124 -12z"/>
</g>
</svg>
