<svg width="56" height="56" viewBox="0 0 56 56" fill="none" xmlns="http://www.w3.org/2000/svg">
<g clip-path="url(#clip0_401_177)">
<path d="M27.9755 8.13109e-06C43.3795 0.0116461 55.8694 12.5062 55.8648 27.901C55.8601 43.3888 43.3888 55.8997 27.9498 55.902C12.5016 55.9044 0 43.3958 0 27.9336C0 12.4713 12.4992 -0.0116299 27.9755 8.13109e-06ZM10.9025 27.9382C10.9025 27.9382 10.9211 27.9382 10.9281 27.9382C10.9281 30.6894 10.8024 33.4476 10.956 36.1919C11.2121 40.7307 14.2147 44.3804 18.7093 44.69C24.7191 45.1019 30.8012 45.1671 36.8087 44.7482C41.7293 44.4037 44.7156 40.903 44.9041 35.9638C45.1089 30.5475 45.0973 25.1102 44.8785 19.6938C44.6807 14.8059 41.2218 11.2447 36.3618 11.0212C30.8337 10.7675 25.2778 10.7628 19.7474 11.0072C14.5661 11.2377 11.1865 14.8641 10.9258 20.0337C10.7931 22.6615 10.9025 25.3034 10.9025 27.9405V27.9382Z" fill="#1F1F1F"/>
<path d="M10.9023 27.9384C10.9023 25.3035 10.7929 22.6617 10.9255 20.0315C11.1862 14.8619 14.5659 11.2332 19.7471 11.0051C25.2752 10.7607 30.8335 10.7653 36.3616 11.019C41.2216 11.2425 44.6804 14.8037 44.8783 19.6917C45.0994 25.108 45.1087 30.5453 44.9039 35.9616C44.7153 40.9031 41.729 44.4038 36.8085 44.746C30.8009 45.165 24.7212 45.0998 18.709 44.6878C14.2121 44.3806 11.2118 40.7309 10.9558 36.1897C10.8022 33.4478 10.9279 30.6873 10.9279 27.936C10.9186 27.936 10.9092 27.936 10.9023 27.936V27.9384ZM27.9426 13.9891V13.9821C25.501 13.9821 23.0593 13.9192 20.62 13.996C16.5513 14.1241 14.0794 16.5075 13.991 20.5622C13.8839 25.4804 13.8862 30.4056 13.991 35.3239C14.0771 39.2878 16.3209 41.7131 20.2569 41.8551C25.366 42.0367 30.489 42.032 35.5981 41.8551C39.4875 41.7201 41.7663 39.3297 41.8617 35.4472C41.9851 30.4522 41.9851 25.4502 41.8663 20.4551C41.7732 16.5075 39.3153 14.1403 35.3793 14.0053C32.9028 13.9216 30.4215 13.9891 27.9403 13.9891H27.9426Z" fill="white"/>
<path d="M27.9431 13.9887C30.422 13.9887 32.9055 13.9189 35.3821 14.005C39.3204 14.14 41.776 16.5072 41.8691 20.4548C41.9879 25.4498 41.9878 30.4518 41.8645 35.4469C41.7691 39.3293 39.4927 41.7198 35.6009 41.8548C30.4918 42.0317 25.3688 42.0363 20.2597 41.8548C16.326 41.7151 14.0799 39.2874 13.9938 35.3235C13.8867 30.4053 13.8844 25.4801 13.9938 20.5619C14.0822 16.5072 16.5541 14.1237 20.6228 13.9957C23.0621 13.9189 25.5038 13.9817 27.9454 13.9817V13.9887H27.9431ZM36.7717 27.9171C36.7531 23.0105 32.7705 19.0769 27.85 19.1094C22.9644 19.1397 19.061 23.1408 19.0959 28.0823C19.1285 32.8772 23.1785 36.8318 28.0153 36.7899C32.8497 36.7503 36.788 32.7585 36.7694 27.9171H36.7717ZM39.1505 18.8092C39.1761 17.6105 38.3661 16.7609 37.1674 16.7306C35.9594 16.7004 35.1121 17.5057 35.0865 18.7068C35.0586 19.9078 35.8756 20.7667 37.0673 20.79C38.2637 20.8132 39.1272 19.9939 39.1528 18.8069L39.1505 18.8092Z" fill="#1F1F1F"/>
<path d="M36.7714 27.9172C36.79 32.7609 32.8517 36.7504 28.0173 36.79C23.1805 36.8296 19.1305 32.8773 19.0979 28.0825C19.063 23.141 22.9664 19.1398 27.852 19.1095C32.7702 19.0793 36.7551 23.0129 36.7737 27.9172H36.7714ZM27.9381 33.6571C31.0571 33.6501 33.6524 31.0944 33.6896 27.9917C33.7245 24.9006 31.0268 22.1773 27.9288 22.1843C24.8215 22.189 22.1354 24.9099 22.1796 28.0033C22.2239 31.1083 24.8284 33.664 27.9381 33.6571Z" fill="white"/>
<path d="M39.1504 18.8095C39.1248 19.9942 38.2613 20.8159 37.0649 20.7926C35.8755 20.7693 35.0585 19.9104 35.0841 18.7094C35.112 17.506 35.9593 16.703 37.165 16.7332C38.3637 16.7635 39.1737 17.6131 39.1481 18.8118L39.1504 18.8095Z" fill="white"/>
<path d="M27.9407 33.6573C24.831 33.6643 22.2264 31.1063 22.1822 28.0036C22.138 24.9102 24.824 22.1916 27.9314 22.1846C31.0271 22.1799 33.7271 24.9009 33.6922 27.9919C33.6573 31.0946 31.062 33.6503 27.9407 33.6573Z" fill="#1F1F1F"/>
</g>
<defs>
<clipPath id="clip0_401_177">
<rect width="55.8648" height="55.902" fill="white"/>
</clipPath>
</defs>
</svg>
