<svg width="576" height="427" viewBox="0 0 576 427" fill="none" xmlns="http://www.w3.org/2000/svg">
<path d="M110.177 59.9961C110.017 58.2132 109.877 56.7108 109.776 55.4889H57.853V76.3824H86.6192C86.5391 79.2471 85.9381 81.9915 84.6962 84.5756C83.354 87.3601 81.491 89.784 79.0871 91.8473C76.6833 93.9106 73.8988 95.4932 70.7537 96.615C67.6087 97.7368 64.2032 98.2776 60.5774 98.2776C55.5493 98.2776 50.8618 97.2961 46.4747 95.353C42.0877 93.4098 38.2815 90.7255 35.0163 87.3401C31.751 83.9346 29.1869 79.9281 27.3239 75.3007C25.4609 70.6733 24.5194 65.7453 24.5194 60.5169C24.5194 55.1683 25.4008 50.2204 27.1637 45.653C28.9265 41.0857 31.4105 37.1193 34.6157 33.794C37.8208 30.4486 41.5268 27.8444 45.7536 25.9414C49.9603 24.0583 54.5878 23.0968 59.6158 23.0968C63.1415 23.0968 66.587 23.6376 69.9525 24.6793C73.3179 25.741 76.503 27.2434 79.4878 29.1866C82.4726 31.1297 85.3572 33.5135 88.1417 36.298L103.046 19.9117C100.061 16.1256 96.3148 12.7802 91.8276 9.89556C87.3404 6.99089 82.3724 4.70723 76.9237 3.04455C71.4749 1.36185 65.7657 0.540527 59.7761 0.540527C51.1222 0.540527 43.1694 2.04294 35.8977 5.04777C28.626 8.0526 22.2958 12.2594 16.9072 17.6681C11.4985 23.0767 7.33179 29.427 4.40709 36.7187C1.46235 44.0104 0 51.9632 0 60.537C0 69.1108 1.42229 77.0836 4.24683 84.4354C7.07137 91.7872 11.1179 98.1975 16.3463 103.646C21.5747 109.115 27.8047 113.362 35.0163 116.427C42.2279 119.492 50.1606 121.014 58.8145 121.014C66.1864 121.014 73.0174 119.752 79.3275 117.248C85.6176 114.744 91.1065 111.198 95.7539 106.631C100.401 102.064 104.027 96.615 106.651 90.2447C109.276 83.8945 110.578 76.9233 110.578 69.3511C110.578 68.3495 110.558 66.9873 110.498 65.2646C110.438 63.5418 110.337 61.779 110.177 59.9961Z" fill="black"/>
<path d="M234.438 36.4381C231.653 29.0863 227.687 22.676 222.498 17.2272C217.31 11.7584 211.28 7.53161 204.389 4.52678C197.498 1.52195 189.886 0.0195312 181.553 0.0195312C173.319 0.0195312 165.747 1.52195 158.796 4.52678C151.845 7.53161 145.795 11.7384 140.607 17.1471C135.419 22.5558 131.452 28.926 128.668 36.2778C125.883 43.6296 124.501 51.7026 124.501 60.5168C124.501 69.2107 125.883 77.2637 128.668 84.6556C131.452 92.0675 135.419 98.4778 140.607 103.866C145.795 109.275 151.845 113.482 158.796 116.487C165.747 119.492 173.38 120.994 181.713 120.994C189.946 120.994 197.498 119.492 204.389 116.487C211.28 113.482 217.31 109.255 222.498 103.786C227.687 98.3376 231.653 91.9273 234.438 84.5754C237.202 77.2236 238.604 69.1907 238.604 60.5168C238.604 51.8028 237.222 43.7899 234.438 36.4381ZM211.761 75.2004C210.099 79.6675 207.835 83.5338 204.95 86.8191C202.066 90.1043 198.64 92.6684 194.694 94.5114C190.747 96.3544 186.36 97.2759 181.553 97.2759C176.845 97.2759 172.518 96.3544 168.572 94.5114C164.625 92.6684 161.14 90.1043 158.155 86.8191C155.17 83.5338 152.887 79.6675 151.344 75.2004C149.802 70.7532 149.02 65.8453 149.02 60.4967C149.02 55.1481 149.802 50.2402 151.344 45.7931C152.887 41.346 155.17 37.4597 158.155 34.1744C161.14 30.8892 164.605 28.325 168.572 26.4821C172.518 24.6391 176.845 23.7176 181.553 23.7176C186.36 23.7176 190.747 24.6391 194.694 26.4821C198.64 28.325 202.066 30.8892 204.95 34.1744C207.835 37.4597 210.099 41.3259 211.761 45.7931C213.424 50.2603 214.245 55.1481 214.245 60.4967C214.245 65.8453 213.424 70.7532 211.761 75.2004Z" fill="black"/>
<path d="M351.024 17.2077C345.836 11.7389 339.806 7.51208 332.915 4.50725C326.024 1.50242 318.411 0 310.078 0C301.845 0 294.273 1.50242 287.321 4.50725C280.37 7.51208 274.321 11.7188 269.132 17.1275C263.944 22.5362 259.978 28.9065 257.193 36.2583C254.409 43.6101 253.026 51.6831 253.026 60.4972C253.026 69.1912 254.409 77.2442 257.193 84.636C259.978 92.048 263.944 98.4583 269.132 103.847C274.321 109.256 280.37 113.462 287.321 116.467C294.273 119.472 301.905 120.974 310.238 120.974C318.472 120.974 326.024 119.472 332.915 116.467C339.806 113.462 345.836 109.236 351.024 103.767C356.212 98.318 360.179 91.9077 362.963 84.5559C365.728 77.2041 367.13 69.1712 367.13 60.4972C367.13 51.8033 365.748 43.7904 362.963 36.4386C360.179 29.0868 356.192 22.6765 351.024 17.2077ZM340.287 75.2009C338.624 79.6681 336.36 83.5343 333.476 86.8196C330.591 90.1048 327.166 92.669 323.219 94.5119C319.273 96.3549 314.886 97.2764 310.078 97.2764C305.371 97.2764 301.044 96.3549 297.097 94.5119C293.151 92.669 289.665 90.1048 286.68 86.8196C283.696 83.5343 281.412 79.6681 279.87 75.2009C278.327 70.7537 277.546 65.8458 277.546 60.4972C277.546 55.1487 278.327 50.2408 279.87 45.7936C281.412 41.3465 283.696 37.4602 286.68 34.1749C289.665 30.8897 293.131 28.3255 297.097 26.4826C301.044 24.6396 305.371 23.7181 310.078 23.7181C314.886 23.7181 319.273 24.6396 323.219 26.4826C327.166 28.3255 330.591 30.8897 333.476 34.1749C336.36 37.4602 338.624 41.3264 340.287 45.7936C341.949 50.2608 342.771 55.1487 342.771 60.4972C342.771 65.8458 341.929 70.7537 340.287 75.2009Z" fill="black"/>
<path d="M474.562 18.6299C469.695 13.4416 463.925 9.43516 457.255 6.59058C450.584 3.74601 443.132 2.32373 434.899 2.32373H388.905V119.312H434.899C443.132 119.312 450.604 117.89 457.335 115.045C464.066 112.2 469.835 108.194 474.643 103.006C479.45 97.8172 483.136 91.6473 485.7 84.4558C488.264 77.2642 489.547 69.3915 489.547 60.8178C489.547 52.1238 488.264 44.2111 485.7 37.0796C483.136 29.9682 479.41 23.8183 474.562 18.6299ZM463.104 75.7017C461.722 80.1689 459.659 83.9149 456.934 86.9798C454.21 90.0448 450.924 92.4486 447.078 94.1714C443.232 95.8941 438.905 96.7555 434.097 96.7555H412.943V24.9H434.097C438.905 24.9 443.232 25.7614 447.078 27.4842C450.924 29.2069 454.21 31.6308 456.934 34.7559C459.659 37.8809 461.722 41.6469 463.104 46.034C464.486 50.4411 465.187 55.369 465.187 60.8178C465.187 66.2865 464.486 71.2545 463.104 75.7017Z" fill="black"/>
<path d="M89.8646 218.13C87.4408 216.287 84.6964 214.824 81.6715 213.682C85.3975 211.92 88.4424 209.476 90.7461 206.271C93.9512 201.823 95.5538 196.234 95.5538 189.564C95.5538 183.554 94.2116 178.366 91.5474 174.019C88.863 169.672 84.9568 166.366 79.7684 164.083C74.5801 161.799 68.2499 160.657 60.7779 160.657H12.0596V277.645H62.3805C68.2499 277.645 73.5584 276.884 78.3261 275.382C83.0737 273.879 87.2204 271.676 90.7461 268.791C94.2717 265.886 96.936 262.241 98.7589 257.853C100.582 253.446 101.483 248.358 101.483 242.569C101.483 237.34 100.462 232.653 98.4384 228.526C96.3951 224.36 93.5506 220.914 89.8646 218.13ZM35.1367 182.352H56.4509C61.6793 182.352 65.5856 183.474 68.1497 185.697C70.7139 187.921 71.9959 191.106 71.9959 195.233C71.9959 197.797 71.435 200.02 70.3132 201.924C69.1914 203.827 67.5688 205.329 65.4254 206.431C63.2819 207.553 60.7779 208.093 57.8933 208.093H35.1367V182.352ZM75.6818 249.36C74.3998 251.583 72.5568 253.226 70.153 254.288C67.7491 255.349 64.8444 255.87 61.4189 255.87H35.1367V227.965H60.6176C64.1433 227.965 67.1682 228.486 69.6722 229.548C72.1762 230.61 74.1394 232.132 75.5216 234.135C76.9038 236.139 77.6049 238.603 77.6049 241.487C77.6049 244.532 76.9639 247.136 75.6818 249.36Z" fill="black"/>
<path d="M213.884 175.502C208.696 170.033 202.666 165.807 195.775 162.802C188.884 159.797 181.272 158.294 172.938 158.294C164.705 158.294 157.133 159.797 150.182 162.802C143.231 165.807 137.181 170.013 131.993 175.422C126.804 180.831 122.838 187.201 120.053 194.553C117.269 201.905 115.887 209.978 115.887 218.792C115.887 227.486 117.269 235.539 120.053 242.93C122.838 250.342 126.804 256.753 131.993 262.141C137.181 267.55 143.231 271.757 150.182 274.762C157.133 277.766 164.765 279.269 173.099 279.269C181.332 279.269 188.884 277.766 195.775 274.762C202.666 271.757 208.696 267.53 213.884 262.061C219.073 256.612 223.039 250.202 225.823 242.85C228.588 235.499 229.99 227.466 229.99 218.792C229.99 210.098 228.608 202.085 225.823 194.733C223.039 187.361 219.073 180.971 213.884 175.502ZM203.147 233.495C201.484 237.963 199.221 241.829 196.336 245.114C193.451 248.399 190.026 250.963 186.08 252.806C182.133 254.649 177.746 255.571 172.938 255.571C168.231 255.571 163.904 254.649 159.958 252.806C156.011 250.963 152.526 248.399 149.541 245.114C146.556 241.829 144.272 237.963 142.73 233.495C141.187 229.048 140.406 224.14 140.406 218.792C140.406 213.443 141.187 208.535 142.73 204.088C144.272 199.641 146.556 195.755 149.541 192.469C152.526 189.184 155.991 186.62 159.958 184.777C163.904 182.934 168.231 182.013 172.938 182.013C177.746 182.013 182.133 182.934 186.08 184.777C190.026 186.62 193.451 189.184 196.336 192.469C199.221 195.755 201.484 199.621 203.147 204.088C204.81 208.555 205.631 213.443 205.631 218.792C205.631 224.14 204.81 229.048 203.147 233.495Z" fill="black"/>
<path d="M313.965 160.638L287.743 203.667L258.997 160.638H231.272L275.503 225.823V277.606H299.702V225.502L340.708 160.638H313.965Z" fill="black"/>
<path d="M427.566 228.888C425.743 225.042 423.159 221.696 419.794 218.872C416.428 216.027 412.402 213.603 407.694 211.6C402.987 209.597 397.698 207.974 391.829 206.752C388.724 206.091 385.899 205.31 383.335 204.409C380.771 203.527 378.588 202.485 376.765 201.324C374.942 200.162 373.56 198.8 372.598 197.237C371.636 195.674 371.156 193.892 371.156 191.888C371.156 189.444 371.877 187.301 373.319 185.458C374.761 183.615 376.765 182.233 379.329 181.291C381.893 180.35 384.938 179.869 388.464 179.869C391.669 179.869 394.794 180.41 397.839 181.452C400.883 182.513 403.708 184.096 406.332 186.219C408.956 188.343 411.38 190.947 413.624 194.072L428.848 178.707C426.284 174.36 423.099 170.654 419.313 167.589C415.527 164.524 411.06 162.221 405.932 160.658C400.803 159.096 394.814 158.314 387.983 158.314C382.434 158.314 377.165 159.156 372.197 160.818C367.229 162.481 362.842 164.885 359.056 168.01C355.27 171.135 352.305 174.841 350.162 179.128C348.018 183.415 346.957 188.062 346.957 193.09C346.957 197.998 347.678 202.385 349.12 206.292C350.563 210.198 352.786 213.663 355.771 216.728C358.756 219.793 362.502 222.357 366.989 224.421C371.476 226.484 376.705 228.247 382.694 229.689C385.479 230.13 388.043 230.731 390.387 231.452C392.73 232.173 394.874 233.015 396.797 233.956C398.72 234.898 400.363 235.959 401.765 237.121C403.147 238.283 404.229 239.625 404.97 241.128C405.711 242.63 406.092 244.273 406.092 246.055C406.092 248.499 405.351 250.603 403.848 252.326C402.346 254.048 400.303 255.411 397.678 256.412C395.054 257.414 392.089 257.915 388.784 257.915C382.694 257.915 377.065 256.552 371.877 253.828C366.689 251.104 361.48 245.955 356.252 238.363L341.188 256.252C344.713 261.16 348.7 265.326 353.127 268.792C357.554 272.238 362.642 274.862 368.351 276.645C374.06 278.428 380.391 279.309 387.342 279.309C395.895 279.309 403.367 277.827 409.778 274.882C416.188 271.937 421.216 267.67 424.842 262.101C428.468 256.532 430.291 249.802 430.291 241.889C430.291 237.061 429.389 232.734 427.566 228.888Z" fill="black"/>
<path d="M110.177 365.967C110.017 364.184 109.877 362.682 109.776 361.46H57.853V382.354H86.6192C86.5391 385.218 85.9381 387.963 84.6962 390.547C83.354 393.331 81.491 395.755 79.0871 397.819C76.6833 399.882 73.8988 401.464 70.7537 402.586C67.6087 403.708 64.2032 404.249 60.5774 404.249C55.5493 404.249 50.8618 403.267 46.4747 401.324C42.0877 399.381 38.2815 396.697 35.0163 393.311C31.751 389.906 29.1869 385.899 27.3239 381.272C25.4609 376.644 24.5194 371.717 24.5194 366.488C24.5194 361.14 25.4008 356.192 27.1637 351.624C28.9265 347.057 31.4105 343.091 34.6157 339.765C37.8208 336.42 41.5268 333.816 45.7536 331.913C49.9603 330.03 54.5878 329.068 59.6158 329.068C63.1415 329.068 66.587 329.609 69.9525 330.651C73.3179 331.712 76.503 333.215 79.4878 335.158C82.4726 337.101 85.3572 339.485 88.1417 342.269L103.046 325.883C100.061 322.097 96.3148 318.751 91.8276 315.867C87.3404 312.962 82.3724 310.678 76.9237 309.016C71.4749 307.333 65.7657 306.512 59.7761 306.512C51.1222 306.512 43.1694 308.014 35.8977 311.019C28.626 314.024 22.2958 318.231 16.9072 323.639C11.4985 329.048 7.33179 335.398 4.40709 342.69C1.46235 349.982 0 357.934 0 366.508C0 375.082 1.42229 383.055 4.24683 390.407C7.07137 397.758 11.1179 404.169 16.3463 409.617C21.5747 415.086 27.8047 419.333 35.0163 422.398C42.2279 425.463 50.1606 426.985 58.8145 426.985C66.1864 426.985 73.0174 425.723 79.3275 423.219C85.6176 420.715 91.1065 417.17 95.7539 412.602C100.401 408.035 104.027 402.586 106.651 396.216C109.276 389.866 110.578 382.895 110.578 375.322C110.578 374.321 110.558 372.959 110.498 371.236C110.438 369.513 110.337 367.75 110.177 365.967Z" fill="black"/>
<path d="M200.463 378.328C206.132 374.982 210.58 370.455 213.845 364.706C217.11 358.976 218.733 352.586 218.733 345.575C218.733 338.443 217.11 332.093 213.845 326.524C210.58 320.955 206.132 316.528 200.463 313.243C194.794 309.958 188.504 308.315 181.553 308.315H131.873V425.303H155.11V383.356H172.839L195.495 425.303L223.38 425.463L197.919 379.61C198.781 379.189 199.642 378.828 200.463 378.328ZM155.13 330.03H177.406C180.932 330.03 184.037 330.731 186.701 332.113C189.365 333.515 191.409 335.439 192.791 337.882C194.173 340.326 194.874 343.231 194.874 346.576C194.874 349.701 194.293 352.506 193.111 355.01C191.93 357.514 190.247 359.477 188.063 360.859C185.88 362.262 183.336 362.943 180.451 362.943H155.13V330.03Z" fill="black"/>
<path d="M333.075 323.179C327.886 317.71 321.857 313.483 314.966 310.478C308.075 307.474 300.462 305.971 292.129 305.971C283.896 305.971 276.323 307.474 269.372 310.478C262.421 313.483 256.371 317.69 251.183 323.099C245.995 328.507 242.028 334.878 239.244 342.229C236.459 349.581 235.077 357.654 235.077 366.468C235.077 375.162 236.459 383.215 239.244 390.607C242.028 398.019 245.995 404.429 251.183 409.818C256.371 415.227 262.421 419.434 269.372 422.438C276.323 425.443 283.956 426.946 292.289 426.946C300.522 426.946 308.075 425.443 314.966 422.438C321.857 419.434 327.886 415.207 333.075 409.738C338.263 404.289 342.229 397.879 345.014 390.527C347.778 383.175 349.181 375.142 349.181 366.468C349.181 357.774 347.798 349.762 345.014 342.41C342.229 335.058 338.243 328.648 333.075 323.179ZM322.337 381.172C320.675 385.639 318.411 389.505 315.526 392.791C312.642 396.076 309.216 398.64 305.27 400.483C301.324 402.326 296.937 403.248 292.129 403.248C287.421 403.248 283.094 402.326 279.148 400.483C275.202 398.64 271.716 396.076 268.731 392.791C265.746 389.505 263.463 385.639 261.92 381.172C260.378 376.725 259.597 371.817 259.597 366.468C259.597 361.12 260.378 356.212 261.92 351.765C263.463 347.318 265.746 343.431 268.731 340.146C271.716 336.861 275.182 334.297 279.148 332.454C283.094 330.611 287.421 329.689 292.129 329.689C296.937 329.689 301.324 330.611 305.27 332.454C309.216 334.297 312.642 336.861 315.526 340.146C318.411 343.431 320.675 347.298 322.337 351.765C324 356.232 324.821 361.12 324.821 366.468C324.821 371.817 323.98 376.725 322.337 381.172Z" fill="black"/>
<path d="M440.669 378.827C440.669 383.515 439.627 387.722 437.544 391.448C435.46 395.174 432.636 398.159 429.05 400.382C425.464 402.606 421.498 403.727 417.111 403.727C412.844 403.727 408.958 402.626 405.492 400.382C402.027 398.159 399.262 395.174 397.239 391.448C395.196 387.722 394.194 383.515 394.194 378.827V308.134H369.995V380.33C369.995 389.124 372.018 397.017 376.085 403.968C380.151 410.939 385.72 416.388 392.832 420.354C399.943 424.301 408.016 426.284 417.111 426.284C426.085 426.284 434.158 424.301 441.31 420.354C448.461 416.408 454.05 410.939 458.057 403.968C462.063 397.017 464.066 389.124 464.066 380.33V308.134H440.669V378.827Z" fill="black"/>
<path d="M557.958 313.243C552.61 309.958 546.58 308.315 539.849 308.315H492.252V425.303H516.291V384.357H539.849C546.58 384.357 552.61 382.654 557.958 379.269C563.307 375.864 567.553 371.276 570.699 365.487C573.844 359.698 575.426 353.187 575.426 345.935C575.426 338.804 573.844 332.394 570.699 326.725C567.553 321.015 563.307 316.528 557.958 313.243ZM548.904 354.109C547.682 356.452 546.039 358.315 544.016 359.698C541.992 361.1 539.689 361.781 537.125 361.781H515.971V330.871H537.125C539.689 330.871 541.992 331.532 544.016 332.874C546.039 334.217 547.682 335.999 548.904 338.223C550.125 340.447 550.746 343.071 550.746 346.076C550.746 349.08 550.146 351.765 548.904 354.109Z" fill="black"/>
</svg>
