<svg width="108" height="147" viewBox="0 0 108 147" fill="none" xmlns="http://www.w3.org/2000/svg">
<path d="M57.546 66.0431H54.5576V53.5231H42.0376V50.5347H57.546V66.0431Z" fill="white"/>
<path d="M104.104 2.9917V86.4352H20.6602V2.9917H104.104ZM107.095 0H17.6685V89.4269H107.095V0Z" fill="white"/>
<path d="M96.5919 10.5034V80.2257L55.222 105.092H2.98843V52.816L26.9253 10.5034H96.5919ZM99.5836 7.51172H25.1807L0 52.0271V108.081H56.0534L99.5836 81.9147V7.51172Z" fill="white"/>
<path d="M12.1306 122.081C12.1142 121.884 12.0979 121.721 12.0881 121.586H6.41233V123.868H9.55787C9.54805 124.182 9.48259 124.48 9.34839 124.761C9.2011 125.066 8.99816 125.331 8.7363 125.557C8.47445 125.783 8.17004 125.956 7.82635 126.077C7.48267 126.198 7.10952 126.261 6.71347 126.261C6.16357 126.261 5.64968 126.153 5.17179 125.94C4.69391 125.727 4.27494 125.436 3.91816 125.063C3.56138 124.693 3.28316 124.254 3.07695 123.747C2.87401 123.243 2.76927 122.703 2.76927 122.13C2.76927 121.544 2.86747 121.004 3.05731 120.503C3.25043 120.002 3.5221 119.57 3.87234 119.207C4.22257 118.84 4.62844 118.555 5.08996 118.349C5.55148 118.143 6.05555 118.038 6.60545 118.038C6.99169 118.038 7.36811 118.097 7.7347 118.212C8.1013 118.326 8.44826 118.493 8.77558 118.706C9.1029 118.919 9.41713 119.177 9.72153 119.482L11.3516 117.691C11.0243 117.279 10.6151 116.912 10.1241 116.595C9.63315 116.277 9.08981 116.029 8.49409 115.845C7.89836 115.662 7.27318 115.57 6.62182 115.57C5.67587 115.57 4.8052 115.734 4.01308 116.065C3.2177 116.392 2.52705 116.853 1.93788 117.443C1.3487 118.032 0.89373 118.726 0.572957 119.524C0.252184 120.323 0.0917969 121.19 0.0917969 122.127C0.0917969 123.066 0.245638 123.933 0.556591 124.739C0.864271 125.544 1.30615 126.244 1.87896 126.84C2.45177 127.436 3.12932 127.904 3.91816 128.238C4.707 128.571 5.5744 128.738 6.52035 128.738C7.32556 128.738 8.07184 128.601 8.76249 128.326C9.44986 128.051 10.0489 127.665 10.5562 127.167C11.0635 126.67 11.4596 126.071 11.7476 125.377C12.0324 124.683 12.1764 123.923 12.1764 123.095C12.1764 122.987 12.1732 122.837 12.1666 122.647C12.1568 122.467 12.147 122.274 12.1306 122.081Z" fill="white"/>
<path d="M25.7112 119.504C25.4068 118.699 24.9715 118.002 24.4052 117.403C23.8389 116.807 23.1778 116.343 22.4249 116.015C21.6721 115.688 20.8407 115.521 19.9307 115.521C19.0306 115.521 18.2025 115.685 17.4431 116.015C16.6837 116.346 16.0226 116.804 15.4563 117.393C14.89 117.982 14.4547 118.68 14.1503 119.485C13.8459 120.29 13.6953 121.171 13.6953 122.133C13.6953 123.082 13.8459 123.963 14.1503 124.771C14.4547 125.58 14.89 126.28 15.4563 126.872C16.0226 127.462 16.6837 127.923 17.4431 128.25C18.2025 128.578 19.0372 128.745 19.9471 128.745C20.8472 128.745 21.6721 128.581 22.4249 128.25C23.1778 127.92 23.8357 127.458 24.4052 126.863C24.9715 126.267 25.4068 125.566 25.7112 124.761C26.0156 123.956 26.1662 123.082 26.1662 122.13C26.1662 121.184 26.0123 120.306 25.7112 119.504ZM23.2334 123.74C23.0534 124.228 22.8046 124.65 22.4904 125.01C22.1762 125.37 21.7997 125.648 21.3709 125.851C20.9389 126.051 20.461 126.152 19.934 126.152C19.4201 126.152 18.9488 126.051 18.5167 125.851C18.0847 125.652 17.705 125.37 17.3777 125.01C17.0503 124.65 16.8016 124.228 16.6346 123.74C16.4644 123.252 16.3793 122.719 16.3793 122.133C16.3793 121.547 16.4644 121.013 16.6346 120.526C16.8048 120.038 17.0503 119.616 17.3777 119.256C17.705 118.896 18.0847 118.617 18.5167 118.414C18.9488 118.215 19.4201 118.113 19.934 118.113C20.461 118.113 20.9389 118.215 21.3709 118.414C21.803 118.614 22.1762 118.896 22.4904 119.256C22.8046 119.616 23.0534 120.038 23.2334 120.526C23.4134 121.013 23.5051 121.547 23.5051 122.133C23.5051 122.719 23.4134 123.256 23.2334 123.74Z" fill="white"/>
<path d="M38.4501 117.403C37.8839 116.807 37.2227 116.343 36.4698 116.015C35.717 115.688 34.8856 115.521 33.9757 115.521C33.0755 115.521 32.2474 115.685 31.488 116.015C30.7287 116.346 30.0675 116.804 29.5012 117.393C28.935 117.982 28.4996 118.68 28.1952 119.485C27.8908 120.29 27.7402 121.171 27.7402 122.133C27.7402 123.082 27.8908 123.963 28.1952 124.771C28.4996 125.58 28.935 126.28 29.5012 126.872C30.0675 127.462 30.7287 127.923 31.488 128.25C32.2474 128.578 33.0821 128.745 33.992 128.745C34.8922 128.745 35.717 128.581 36.4698 128.25C37.2227 127.923 37.8806 127.458 38.4501 126.863C39.0164 126.267 39.4517 125.566 39.7561 124.761C40.0605 123.956 40.2111 123.082 40.2111 122.13C40.2111 121.18 40.0605 120.303 39.7561 119.501C39.4517 118.699 39.0164 117.999 38.4501 117.403ZM37.2783 123.74C37.0983 124.228 36.8495 124.65 36.5353 125.01C36.2211 125.37 35.8447 125.648 35.4159 125.851C34.9838 126.051 34.5059 126.152 33.9789 126.152C33.465 126.152 32.9937 126.051 32.5617 125.851C32.1296 125.652 31.7499 125.37 31.4226 125.01C31.0953 124.65 30.8465 124.228 30.6796 123.74C30.5094 123.252 30.4243 122.719 30.4243 122.133C30.4243 121.547 30.5094 121.013 30.6796 120.526C30.8498 120.038 31.0953 119.616 31.4226 119.256C31.7499 118.896 32.1296 118.617 32.5617 118.414C32.9937 118.215 33.465 118.113 33.9789 118.113C34.5059 118.113 34.9838 118.215 35.4159 118.414C35.8479 118.614 36.2211 118.896 36.5353 119.256C36.8495 119.616 37.0983 120.038 37.2783 120.526C37.4583 121.013 37.55 121.547 37.55 122.133C37.55 122.719 37.4583 123.256 37.2783 123.74Z" fill="white"/>
<path d="M51.9522 117.56C51.4219 116.994 50.7902 116.556 50.0602 116.245C49.3303 115.934 48.5153 115.78 47.6184 115.78H42.5908V128.565H47.6184C48.5186 128.565 49.3336 128.411 50.0701 128.1C50.8065 127.789 51.435 127.351 51.962 126.784C52.489 126.218 52.8916 125.544 53.1698 124.758C53.4513 123.973 53.5887 123.112 53.5887 122.172C53.5887 121.223 53.448 120.359 53.1698 119.58C52.8916 118.798 52.4857 118.127 51.9522 117.56ZM50.7018 123.796C50.5512 124.284 50.3254 124.693 50.0275 125.03C49.7297 125.364 49.3696 125.626 48.9506 125.815C48.5317 126.005 48.0571 126.097 47.5333 126.097H45.2225V118.244H47.5333C48.0571 118.244 48.5317 118.339 48.9506 118.526C49.3696 118.716 49.7297 118.981 50.0275 119.321C50.3254 119.662 50.5512 120.074 50.7018 120.555C50.8524 121.037 50.9309 121.577 50.9309 122.172C50.9276 122.768 50.8524 123.308 50.7018 123.796Z" fill="white"/>
<path d="M69.8499 122.061C69.5848 121.861 69.2837 121.701 68.9564 121.573C69.3622 121.38 69.6961 121.112 69.9481 120.765C70.2984 120.277 70.4719 119.668 70.4719 118.938C70.4719 118.281 70.3278 117.714 70.0332 117.24C69.7419 116.765 69.3131 116.402 68.7469 116.153C68.1806 115.904 67.49 115.78 66.6717 115.78H61.3462V128.565H66.8452C67.4867 128.565 68.0693 128.483 68.5865 128.319C69.1069 128.156 69.5586 127.914 69.9449 127.599C70.3311 127.282 70.6224 126.886 70.8188 126.405C71.0185 125.923 71.1167 125.367 71.1167 124.732C71.1167 124.159 71.0054 123.649 70.7828 123.197C70.5668 122.742 70.2525 122.365 69.8499 122.061ZM63.8698 118.153H66.2003C66.7731 118.153 67.1987 118.274 67.4802 118.519C67.7617 118.762 67.8991 119.112 67.8991 119.56C67.8991 119.842 67.8369 120.084 67.7158 120.29C67.5947 120.496 67.4147 120.66 67.1823 120.785C66.9499 120.906 66.675 120.968 66.3607 120.968H63.8731V118.153H63.8698ZM68.3017 125.475C68.161 125.717 67.9613 125.897 67.6962 126.015C67.4343 126.13 67.1168 126.189 66.7404 126.189H63.8666V123.138H66.652C67.0383 123.138 67.3656 123.197 67.6405 123.311C67.9155 123.426 68.1283 123.593 68.2788 123.812C68.4294 124.032 68.5079 124.3 68.5079 124.617C68.5112 124.948 68.4425 125.233 68.3017 125.475Z" fill="white"/>
<path d="M83.4042 117.403C82.838 116.807 82.1768 116.343 81.4239 116.015C80.6711 115.688 79.8397 115.521 78.9298 115.521C78.0296 115.521 77.2015 115.685 76.4421 116.015C75.6828 116.343 75.0216 116.804 74.4553 117.393C73.8891 117.982 73.4537 118.68 73.1493 119.485C72.8449 120.29 72.6943 121.171 72.6943 122.133C72.6943 123.082 72.8449 123.963 73.1493 124.771C73.4537 125.58 73.8891 126.28 74.4553 126.872C75.0216 127.462 75.6828 127.923 76.4421 128.25C77.2015 128.578 78.0362 128.745 78.9461 128.745C79.8463 128.745 80.6711 128.581 81.4239 128.25C82.1768 127.92 82.8347 127.458 83.4042 126.863C83.9705 126.267 84.4058 125.566 84.7102 124.761C85.0146 123.956 85.1652 123.082 85.1652 122.13C85.1652 121.18 85.0146 120.303 84.7102 119.501C84.4058 118.699 83.9705 117.999 83.4042 117.403ZM82.2324 123.74C82.0524 124.228 81.8036 124.65 81.4894 125.01C81.1752 125.37 80.7988 125.648 80.37 125.851C79.9379 126.051 79.46 126.152 78.933 126.152C78.4192 126.152 77.9478 126.051 77.5158 125.851C77.0837 125.652 76.704 125.37 76.3767 125.01C76.0494 124.65 75.8006 124.228 75.6337 123.74C75.4635 123.252 75.3784 122.719 75.3784 122.133C75.3784 121.547 75.4635 121.013 75.6337 120.526C75.8039 120.038 76.0494 119.616 76.3767 119.256C76.704 118.896 77.0837 118.617 77.5158 118.414C77.9478 118.215 78.4192 118.113 78.933 118.113C79.46 118.113 79.9379 118.215 80.37 118.414C80.802 118.614 81.1752 118.896 81.4894 119.256C81.8036 119.616 82.0524 120.038 82.2324 120.526C82.4125 121.013 82.5041 121.547 82.5041 122.133C82.5041 122.719 82.4125 123.256 82.2324 123.74Z" fill="white"/>
<path d="M94.3434 115.78L91.4794 120.48L88.3371 115.78H85.3062L90.1407 122.902V128.562H92.7854V122.87L97.2664 115.78H94.3434Z" fill="white"/>
<path d="M106.758 123.239C106.559 122.82 106.277 122.454 105.907 122.143C105.541 121.832 105.099 121.567 104.585 121.347C104.071 121.128 103.492 120.951 102.85 120.817C102.513 120.745 102.202 120.66 101.921 120.562C101.642 120.464 101.4 120.352 101.204 120.225C101.004 120.097 100.854 119.946 100.749 119.776C100.644 119.606 100.592 119.41 100.592 119.19C100.592 118.922 100.67 118.689 100.827 118.487C100.984 118.287 101.204 118.133 101.485 118.032C101.767 117.927 102.097 117.878 102.484 117.878C102.834 117.878 103.174 117.937 103.508 118.051C103.842 118.166 104.15 118.339 104.438 118.572C104.722 118.804 104.988 119.089 105.236 119.429L106.899 117.75C106.621 117.275 106.271 116.87 105.858 116.536C105.443 116.202 104.955 115.95 104.395 115.776C103.835 115.606 103.181 115.521 102.435 115.521C101.826 115.521 101.253 115.613 100.71 115.796C100.166 115.979 99.6883 116.241 99.2726 116.582C98.8569 116.922 98.5329 117.328 98.3005 117.796C98.0681 118.264 97.9502 118.771 97.9502 119.321C97.9502 119.858 98.0288 120.339 98.1859 120.765C98.343 121.19 98.5852 121.57 98.9125 121.907C99.2399 122.241 99.649 122.522 100.14 122.748C100.631 122.974 101.204 123.164 101.855 123.324C102.16 123.373 102.438 123.436 102.696 123.517C102.955 123.596 103.187 123.688 103.397 123.792C103.606 123.897 103.786 124.012 103.94 124.139C104.091 124.267 104.209 124.414 104.29 124.578C104.372 124.742 104.415 124.922 104.415 125.118C104.415 125.386 104.333 125.616 104.169 125.802C104.006 125.992 103.78 126.139 103.495 126.251C103.21 126.359 102.886 126.414 102.523 126.414C101.858 126.414 101.243 126.264 100.677 125.966C100.111 125.668 99.541 125.105 98.9682 124.277L97.3218 126.231C97.708 126.768 98.1433 127.223 98.6278 127.602C99.1122 127.979 99.6654 128.267 100.291 128.46C100.916 128.653 101.606 128.751 102.366 128.751C103.299 128.751 104.117 128.591 104.817 128.267C105.518 127.943 106.068 127.478 106.464 126.869C106.86 126.26 107.06 125.524 107.06 124.66C107.056 124.129 106.958 123.658 106.758 123.239Z" fill="white"/>
<path d="M12.1306 139.611C12.1142 139.415 12.0979 139.251 12.0881 139.117H6.41233V141.399H9.55787C9.54805 141.713 9.48259 142.011 9.34839 142.292C9.2011 142.597 8.99816 142.862 8.7363 143.088C8.47445 143.313 8.17004 143.487 7.82635 143.608C7.48267 143.729 7.10952 143.791 6.71347 143.791C6.16357 143.791 5.64968 143.683 5.17179 143.471C4.69391 143.258 4.27494 142.966 3.91816 142.593C3.56138 142.223 3.28316 141.785 3.07695 141.278C2.87401 140.773 2.76927 140.233 2.76927 139.661C2.76927 139.075 2.86747 138.535 3.05731 138.034C3.25043 137.533 3.5221 137.101 3.87234 136.738C4.22257 136.371 4.62844 136.086 5.08996 135.88C5.55148 135.674 6.05555 135.569 6.60545 135.569C6.99169 135.569 7.36811 135.628 7.7347 135.743C8.1013 135.857 8.44826 136.024 8.77558 136.237C9.1029 136.45 9.41713 136.708 9.72153 137.013L11.3516 135.222C11.0243 134.81 10.6151 134.443 10.1241 134.126C9.63315 133.808 9.08981 133.559 8.49409 133.376C7.89836 133.193 7.27318 133.101 6.62182 133.101C5.67587 133.101 4.8052 133.265 4.01308 133.595C3.2177 133.923 2.52705 134.384 1.93788 134.973C1.3487 135.563 0.89373 136.256 0.572957 137.055C0.252184 137.854 0.0917969 138.721 0.0917969 139.657C0.0917969 140.597 0.245638 141.464 0.556591 142.269C0.864271 143.074 1.30615 143.775 1.87896 144.371C2.45177 144.966 3.12932 145.434 3.91816 145.768C4.707 146.102 5.5744 146.269 6.52035 146.269C7.32556 146.269 8.07184 146.132 8.76249 145.857C9.44986 145.582 10.0489 145.196 10.5562 144.698C11.0635 144.2 11.4596 143.601 11.7476 142.908C12.0324 142.214 12.1764 141.454 12.1764 140.626C12.1764 140.518 12.1732 140.368 12.1666 140.178C12.1568 139.998 12.147 139.805 12.1306 139.611Z" fill="white"/>
<path d="M21.9958 140.963C22.6144 140.597 23.1021 140.102 23.4589 139.474C23.8157 138.845 23.9924 138.148 23.9924 137.382C23.9924 136.603 23.8157 135.909 23.4589 135.301C23.1021 134.692 22.6144 134.207 21.9958 133.847C21.3771 133.487 20.6865 133.307 19.9304 133.307H14.5034V146.092H17.0434V141.506H18.9811L21.459 146.092L24.5063 146.112L21.7241 141.101C21.8125 141.058 21.9074 141.015 21.9958 140.963ZM17.0401 135.683H19.4754C19.8616 135.683 20.1988 135.759 20.4901 135.913C20.7814 136.066 21.004 136.276 21.1545 136.541C21.3051 136.809 21.3837 137.127 21.3837 137.49C21.3837 137.831 21.3182 138.138 21.1906 138.413C21.0629 138.688 20.8763 138.901 20.6374 139.052C20.3984 139.205 20.1202 139.281 19.806 139.281H17.0401V135.683Z" fill="white"/>
<path d="M36.4897 134.934C35.9234 134.338 35.2622 133.873 34.5094 133.546C33.7566 133.219 32.9252 133.052 32.0152 133.052C31.1151 133.052 30.287 133.215 29.5276 133.546C28.7682 133.877 28.107 134.335 27.5408 134.924C26.9745 135.513 26.5392 136.21 26.2348 137.016C25.9304 137.821 25.7798 138.701 25.7798 139.664C25.7798 140.613 25.9304 141.493 26.2348 142.302C26.5392 143.11 26.9745 143.811 27.5408 144.403C28.107 144.992 28.7682 145.454 29.5276 145.781C30.287 146.109 31.1216 146.275 32.0316 146.275C32.9317 146.275 33.7566 146.112 34.5094 145.781C35.2622 145.451 35.9201 144.989 36.4897 144.393C37.0559 143.798 37.4913 143.097 37.7957 142.292C38.1001 141.487 38.2507 140.613 38.2507 139.66C38.2507 138.711 38.1001 137.834 37.7957 137.032C37.4913 136.233 37.0559 135.533 36.4897 134.934ZM35.3146 141.274C35.1346 141.762 34.8858 142.184 34.5716 142.544C34.2574 142.904 33.8809 143.182 33.4521 143.385C33.0201 143.585 32.5422 143.686 32.0152 143.686C31.5013 143.686 31.03 143.585 30.5979 143.385C30.1659 143.186 29.7862 142.904 29.4589 142.544C29.1315 142.184 28.8828 141.762 28.7158 141.274C28.5456 140.786 28.4605 140.253 28.4605 139.667C28.4605 139.081 28.5456 138.547 28.7158 138.06C28.886 137.572 29.1315 137.15 29.4589 136.79C29.7862 136.43 30.1659 136.151 30.5979 135.949C31.03 135.749 31.5013 135.647 32.0152 135.647C32.5422 135.647 33.0201 135.749 33.4521 135.949C33.8842 136.148 34.2574 136.43 34.5716 136.79C34.8858 137.15 35.1346 137.572 35.3146 138.06C35.4946 138.547 35.5863 139.081 35.5863 139.667C35.5863 140.25 35.4979 140.786 35.3146 141.274Z" fill="white"/>
<path d="M48.2501 141.019C48.2501 141.53 48.1356 141.991 47.9097 142.397C47.6806 142.806 47.3729 143.13 46.9801 143.376C46.5873 143.618 46.1553 143.742 45.6741 143.742C45.2061 143.742 44.7838 143.621 44.4041 143.376C44.0244 143.134 43.7233 142.806 43.504 142.397C43.2814 141.988 43.1701 141.53 43.1701 141.019V133.294H40.5254V141.183C40.5254 142.145 40.748 143.006 41.1898 143.769C41.635 144.528 42.2438 145.127 43.0196 145.559C43.7953 145.991 44.6791 146.207 45.6741 146.207C46.6561 146.207 47.5366 145.991 48.3189 145.559C49.1012 145.127 49.71 144.531 50.1486 143.769C50.5872 143.009 50.8065 142.145 50.8065 141.183V133.294H48.2501V141.019Z" fill="white"/>
<path d="M61.0681 133.847C60.4855 133.487 59.8243 133.307 59.0878 133.307H53.8867V146.092H56.5151V141.621H59.0911C59.8276 141.621 60.4855 141.434 61.0714 141.065C61.654 140.695 62.1188 140.191 62.4625 139.559C62.8062 138.927 62.9796 138.214 62.9796 137.422C62.9796 136.643 62.8062 135.942 62.4625 135.32C62.1155 134.698 61.6507 134.207 61.0681 133.847ZM60.0796 138.315C59.9454 138.57 59.7686 138.773 59.5461 138.927C59.3235 139.081 59.0747 139.156 58.7932 139.156H56.4824V135.778H58.7932C59.0747 135.778 59.3235 135.85 59.5461 135.998C59.7686 136.145 59.9454 136.338 60.0796 136.584C60.2138 136.826 60.2825 137.114 60.2825 137.441C60.2825 137.768 60.2138 138.06 60.0796 138.315Z" fill="white"/>
</svg>
