<svg width="56" height="56" viewBox="0 0 56 56" fill="none" xmlns="http://www.w3.org/2000/svg">
<path d="M55.8718 28.0523C55.8764 43.3609 43.3702 55.8811 28.0499 55.8997C12.5295 55.9206 0.00698572 43.4168 2.91295e-06 27.8917C-0.00697989 12.4829 12.5411 -0.0046539 28.0313 1.30113e-06C43.4587 0.00465651 55.8648 12.5062 55.8694 28.0523H55.8718ZM27.7078 37.0903C30.4101 39.0804 32.9891 40.9937 35.589 42.8837C37.4116 44.2082 38.58 43.7473 39.0479 41.5268C39.5017 39.3691 39.9207 37.2021 40.3583 35.0421C41.6175 28.8204 42.907 22.6057 44.1057 16.3724C44.2594 15.574 44.1849 14.5103 43.7496 13.9074C43.5029 13.5676 42.232 13.7259 41.5454 13.9842C31.0363 17.9132 20.5434 21.8841 10.0715 25.9062C9.5455 26.1087 8.95429 26.8466 8.91705 27.3726C8.88912 27.7613 9.6386 28.4154 10.1646 28.6016C12.3503 29.379 14.5708 30.068 16.803 30.6941C17.5525 30.9036 17.8457 31.3039 18.0622 31.9906C18.9164 34.7208 19.8102 37.4395 20.718 40.1535C21.3651 42.0877 22.2007 42.2972 23.7276 40.896C25.0636 39.6693 26.3531 38.3915 27.7078 37.0927V37.0903Z" fill="#1F1F1F"/>
<path d="M27.708 37.0904C26.351 38.3892 25.0638 39.6671 23.7278 40.8937C22.2009 42.2973 21.3653 42.0855 20.7182 40.1512C19.8104 37.4372 18.9166 34.7186 18.0624 31.9883C17.8483 31.3017 17.555 30.9037 16.8032 30.6918C14.5687 30.0657 12.3481 29.3767 10.1649 28.5993C9.63882 28.4131 8.88933 27.7591 8.91726 27.3703C8.95683 26.8443 9.54804 26.1065 10.0718 25.904C20.546 21.8819 31.0388 17.911 41.5456 13.982C42.2346 13.7236 43.5054 13.5653 43.7498 13.9052C44.1851 14.508 44.2596 15.5717 44.1059 16.3701C42.9072 22.6034 41.6177 28.8181 40.3585 35.0398C39.9209 37.2021 39.502 39.3668 39.0481 41.5245C38.5802 43.745 37.4118 44.2059 35.5893 42.8815C32.9916 40.9915 30.4103 39.0759 27.708 37.0881V37.0904ZM21.9495 39.2993C22.0217 39.2993 22.0961 39.2993 22.1683 39.297C22.3615 37.6281 22.4825 35.9452 22.7828 34.295C22.9085 33.6013 23.2669 32.8169 23.7743 32.3491C28.2783 28.2083 32.8404 24.1327 37.3745 20.0291C37.6771 19.7544 37.9052 19.3983 38.273 18.9514C37.1581 18.9631 21.0208 28.8321 19.0912 30.5359C20.0385 33.4431 20.9929 36.3712 21.9472 39.3016L21.9495 39.2993Z" fill="white"/>
<path d="M21.9492 39.2994C20.9949 36.369 20.0406 33.4409 19.0933 30.5337C21.0228 28.8299 37.1601 18.9632 38.275 18.9492C37.9073 19.3961 37.6792 19.7522 37.3766 20.0269C32.8401 24.1328 28.278 28.2084 23.7764 32.3469C23.269 32.8147 22.9105 33.5991 22.7848 34.2928C22.4846 35.943 22.3635 37.6259 22.1704 39.2948C22.0982 39.2948 22.0237 39.2948 21.9516 39.2971L21.9492 39.2994Z" fill="#1F1F1F"/>
</svg>
