<svg width="56" height="56" viewBox="0 0 56 56" fill="none" xmlns="http://www.w3.org/2000/svg">
<g clip-path="url(#clip0_401_170)">
<path d="M27.9219 55.9039C12.4457 55.8923 -0.0162773 43.4024 1.59585e-05 27.9215C0.0163092 12.4872 12.5761 -0.0353295 28.0011 -0.00041545C43.4331 0.0344986 55.8997 12.5919 55.8648 28.0658C55.8299 43.4769 43.3423 55.9156 27.9219 55.9039ZM10.9374 45.0131C11.3494 44.9363 11.6148 44.9153 11.8615 44.8385C14.3311 44.0518 16.789 43.2255 19.2726 42.4876C19.759 42.3433 20.4154 42.3643 20.867 42.5761C25.1148 44.5615 29.4605 44.8502 33.8573 43.2674C41.3382 40.5743 45.8887 33.1214 44.8669 25.4123C43.8171 17.5078 37.5698 11.4863 29.5303 10.8811C23.0386 10.3923 17.8411 12.9271 14.2961 18.397C10.7931 23.8016 10.5813 29.4926 13.4117 35.3047C13.663 35.8214 13.7352 36.5779 13.5676 37.1225C12.7739 39.7085 11.8685 42.2595 10.9374 45.0154V45.0131Z" fill="#1F1F1F"/>
<path d="M10.9351 45.0134C11.8661 42.2575 12.7715 39.7065 13.5652 37.1205C13.7328 36.5759 13.6607 35.8194 13.4093 35.3027C10.5789 29.4906 10.7931 23.7997 14.2938 18.395C17.8387 12.9251 23.0363 10.3903 29.5279 10.8791C37.5675 11.4843 43.8148 17.5058 44.8645 25.4104C45.8863 33.1194 41.3359 40.5724 33.855 43.2654C29.4581 44.8482 25.1125 44.5595 20.8646 42.5741C20.4107 42.3623 19.7567 42.3413 19.2702 42.4856C16.7867 43.2258 14.3287 44.0498 11.8591 44.8365C11.6124 44.9157 11.347 44.9366 10.9351 45.0111V45.0134ZM15.2644 40.8237C16.903 40.3 18.2507 39.8066 19.6356 39.4598C20.1593 39.3294 20.8669 39.3597 21.3208 39.6157C29.4628 44.1871 39.8392 39.6227 41.8526 30.5497C43.2259 24.3606 40.2419 18.118 34.4415 15.0572C29.23 12.306 22.2472 13.5279 18.1972 17.9038C13.7538 22.701 13.0927 29.5186 16.4864 34.9815C16.7424 35.3934 16.8006 36.0731 16.6726 36.5526C16.3072 37.9189 15.7974 39.2479 15.2644 40.8237Z" fill="white"/>
<path d="M15.2644 40.826C15.7974 39.2478 16.3071 37.9211 16.6726 36.5548C16.8006 36.0753 16.7424 35.3957 16.4864 34.9837C13.0927 29.5185 13.7561 22.7032 18.1972 17.9061C22.2472 13.5325 29.23 12.3082 34.4415 15.0594C40.2419 18.1225 43.2259 24.3628 41.8526 30.5519C39.8369 39.6249 29.4628 44.1893 21.3208 39.6179C20.8646 39.3619 20.1593 39.3316 19.6356 39.462C18.2507 39.8088 16.903 40.3022 15.2644 40.826ZM32.477 36.1545C34.5812 35.8612 35.7519 34.9441 36.5945 33.6337C37.3301 32.4931 37.1043 31.8647 35.9219 31.2153C35.5145 30.9918 35.1002 30.7824 34.6929 30.5589C32.7726 29.5045 32.747 29.4812 31.3248 31.1036C30.7429 31.7693 30.2309 31.8996 29.4325 31.4806C27.3097 30.3704 25.6501 28.7923 24.498 26.7091C24.335 26.4134 24.3816 25.7338 24.6027 25.5359C25.7805 24.4792 25.8666 23.3457 25.1357 22.0189C24.896 21.5837 24.7936 21.0739 24.6097 20.6061C24.0185 19.1071 22.9944 18.8092 21.649 19.7402C20.1058 20.8086 19.4075 23.0245 20.157 25.0588C21.5536 28.8574 24.0208 31.86 27.482 33.9269C29.1509 34.9232 31.0479 35.5307 32.4747 36.1545H32.477Z" fill="#1F1F1F"/>
<path d="M32.4746 36.1549C31.0477 35.5311 29.1484 34.9236 27.4819 33.9274C24.023 31.8628 21.5535 28.8578 20.1569 25.0592C19.4074 23.0249 20.1057 20.8067 21.6489 19.7406C22.9942 18.8096 24.0184 19.1052 24.6096 20.6065C24.7935 21.0743 24.8959 21.5841 25.1356 22.0194C25.8665 23.3461 25.7804 24.4796 24.6026 25.5364C24.3815 25.7342 24.3326 26.4139 24.4979 26.7095C25.65 28.7927 27.3073 30.3708 29.4324 31.4811C30.2308 31.9 30.7428 31.7673 31.3247 31.104C32.7446 29.4816 32.7725 29.5049 34.6928 30.5593C35.1001 30.7828 35.5144 30.9923 35.9217 31.2157C37.1042 31.8651 37.3276 32.4912 36.5944 33.6341C35.7518 34.9445 34.581 35.8616 32.4769 36.1549H32.4746Z" fill="white"/>
</g>
<defs>
<clipPath id="clip0_401_170">
<rect width="55.8648" height="55.9043" fill="white"/>
</clipPath>
</defs>
</svg>
